<?xml version="1.0" encoding="UTF-8"?>
<svg xmlns="http://www.w3.org/2000/svg" xmlns:xlink="http://www.w3.org/1999/xlink" width="48px" height="27px" viewBox="0 0 48 27" version="1.1">
<g id="surface1">
<rect x="0" y="0" width="48" height="27" style="fill:rgb(100%,100%,100%);fill-opacity:1;stroke:none;"/>
<path style="fill-rule:evenodd;fill:rgb(0%,0%,0%);fill-opacity:1;stroke-width:2;stroke-linecap:butt;stroke-linejoin:miter;stroke:rgb(0%,0%,0%);stroke-opacity:1;stroke-miterlimit:8;" d="M 243.020833 460.9375 L 368.958333 203.958333 L 438.541667 203.958333 L 446.041667 461.979167 Z M 243.020833 460.9375 " transform="matrix(0.0375,0,0,0.0375,0,0)"/>
<path style="fill-rule:evenodd;fill:rgb(100%,100%,100%);fill-opacity:1;stroke-width:2;stroke-linecap:butt;stroke-linejoin:miter;stroke:rgb(100%,100%,100%);stroke-opacity:1;stroke-miterlimit:8;" d="M 351.979167 333.020833 L 401.041667 243.020833 C 401.041667 273.020833 401.041667 303.020833 401.041667 333.020833 Z M 351.979167 333.020833 " transform="matrix(0.0375,0,0,0.0375,0,0)"/>
<path style="fill-rule:nonzero;fill:rgb(0%,0%,0%);fill-opacity:1;stroke-width:2;stroke-linecap:butt;stroke-linejoin:miter;stroke:rgb(0%,0%,0%);stroke-opacity:1;stroke-miterlimit:8;" d="M 410 333.020833 L 493.020833 333.020833 L 493.020833 371.041667 L 410 371.041667 Z M 410 333.020833 " transform="matrix(0.0375,0,0,0.0375,0,0)"/>
<path style="fill-rule:evenodd;fill:rgb(0%,0%,0%);fill-opacity:1;stroke-width:2;stroke-linecap:butt;stroke-linejoin:miter;stroke:rgb(0%,0%,0%);stroke-opacity:1;stroke-miterlimit:8;" d="M 468.958333 461.979167 L 518.020833 203.958333 L 788.020833 203.958333 L 738.958333 461.979167 Z M 468.958333 461.979167 " transform="matrix(0.0375,0,0,0.0375,0,0)"/>
<path style="fill-rule:evenodd;fill:rgb(100%,100%,100%);fill-opacity:1;stroke-width:2;stroke-linecap:butt;stroke-linejoin:miter;stroke:rgb(100%,100%,100%);stroke-opacity:1;stroke-miterlimit:8;" d="M 563.958333 475.9375 C 501.354167 476.354167 572.604167 474.6875 510 475.104167 L 555.729167 286.041667 Z M 563.958333 475.9375 " transform="matrix(0.0375,0,0,0.0375,0,0)"/>
<path style="fill-rule:evenodd;fill:rgb(100%,100%,100%);fill-opacity:1;stroke-width:2;stroke-linecap:butt;stroke-linejoin:miter;stroke:rgb(100%,100%,100%);stroke-opacity:1;stroke-miterlimit:8;" d="M 680.729167 468.854167 C 592.604167 469.166667 718.020833 468.541667 630 468.958333 L 723.020833 291.041667 Z M 680.729167 468.854167 " transform="matrix(0.0375,0,0,0.0375,0,0)"/>
<path style="fill-rule:evenodd;fill:rgb(100%,100%,100%);fill-opacity:1;stroke-width:2;stroke-linecap:butt;stroke-linejoin:miter;stroke:rgb(100%,100%,100%);stroke-opacity:1;stroke-miterlimit:8;" d="M 771.979167 76.041667 L 610 378.958333 L 603.020833 76.041667 Z M 771.979167 76.041667 " transform="matrix(0.0375,0,0,0.0375,0,0)"/>
<path style="fill-rule:evenodd;fill:rgb(8.235294%,37.64706%,50.980395%);fill-opacity:1;stroke-width:2;stroke-linecap:butt;stroke-linejoin:miter;stroke:rgb(8.235294%,37.64706%,50.980395%);stroke-opacity:1;stroke-miterlimit:8;" d="M 888.020833 318.020833 L 895.3125 318.75 L 899.375 318.333333 L 907.708333 319.583333 C 918.75 321.770833 929.0625 326.041667 938.020833 331.979167 L 948.958333 340.833333 L 942.708333 345.9375 C 931.354167 353.4375 918.229167 358.333333 903.958333 359.6875 L 897.916667 360 L 890.729167 359.270833 L 886.5625 359.6875 L 878.229167 358.4375 C 867.1875 356.25 856.979167 351.979167 847.916667 345.9375 L 836.979167 337.1875 L 843.333333 331.979167 C 854.583333 324.583333 867.8125 319.6875 881.979167 318.333333 Z M 888.020833 318.020833 " transform="matrix(0.0375,0,0,0.0375,0,0)"/>
<path style="fill-rule:evenodd;fill:rgb(8.235294%,37.64706%,50.980395%);fill-opacity:1;stroke-width:2;stroke-linecap:butt;stroke-linejoin:miter;stroke:rgb(8.235294%,37.64706%,50.980395%);stroke-opacity:1;stroke-miterlimit:8;" d="M 895.520833 193.020833 C 942.708333 193.020833 981.041667 230.520833 981.041667 276.770833 C 981.041667 299.895833 971.458333 320.833333 955.9375 335.9375 L 949.6875 341.041667 L 938.645833 332.083333 C 929.583333 326.041667 919.166667 321.666667 908.020833 319.479167 L 899.6875 318.229167 L 904.270833 317.708333 C 924.166667 313.854167 939.0625 296.979167 939.0625 276.770833 C 939.0625 253.645833 919.583333 234.895833 895.520833 234.895833 C 871.458333 234.895833 851.875 253.645833 851.875 276.770833 C 851.875 296.979167 866.875 313.854167 886.666667 317.708333 L 888.125 317.916667 L 882.083333 318.229167 C 867.708333 319.583333 854.375 324.583333 843.020833 332.083333 L 836.666667 337.1875 L 835 335.9375 C 819.583333 320.833333 810 299.895833 810 276.770833 C 810 230.520833 848.229167 193.020833 895.520833 193.020833 Z M 895.520833 193.020833 " transform="matrix(0.0375,0,0,0.0375,0,0)"/>
<path style="fill-rule:evenodd;fill:rgb(8.235294%,37.64706%,50.980395%);fill-opacity:1;stroke-width:2;stroke-linecap:butt;stroke-linejoin:miter;stroke:rgb(1.568628%,14.117648%,20%);stroke-opacity:1;stroke-miterlimit:8;" d="M 890.833333 316.979167 C 893.854167 316.979167 896.979167 317.1875 899.895833 317.5 L 900 317.5 L 895.625 318.020833 L 888.020833 317.1875 Z M 890.833333 316.979167 " transform="matrix(0.0375,0,0,0.0375,0,0)"/>
<path style="fill-rule:evenodd;fill:rgb(0%,0%,0%);fill-opacity:1;stroke-width:2;stroke-linecap:butt;stroke-linejoin:miter;stroke:rgb(0%,0%,0%);stroke-opacity:1;stroke-miterlimit:8;" d="M 837.083333 336.979167 L 848.125 345.833333 C 857.1875 351.875 867.395833 356.145833 878.541667 358.4375 L 886.875 359.6875 L 882.291667 360.104167 C 862.5 363.958333 847.708333 380.729167 847.708333 400.833333 C 847.708333 423.75 867.083333 442.395833 891.041667 442.395833 C 914.895833 442.395833 934.375 423.75 934.375 400.833333 C 934.375 380.729167 919.479167 363.958333 899.6875 360.104167 L 898.333333 360 L 904.375 359.6875 C 918.645833 358.229167 931.875 353.333333 943.125 345.833333 L 949.479167 340.729167 L 951.145833 341.979167 C 966.458333 357.083333 976.041667 377.8125 976.041667 400.833333 C 976.041667 446.770833 937.916667 483.958333 891.041667 483.958333 C 844.0625 483.958333 806.041667 446.770833 806.041667 400.833333 C 806.041667 377.8125 815.520833 357.083333 830.9375 341.979167 Z M 837.083333 336.979167 " transform="matrix(0.0375,0,0,0.0375,0,0)"/>
<path style="fill-rule:evenodd;fill:rgb(8.235294%,37.64706%,50.980395%);fill-opacity:1;stroke-width:2;stroke-linecap:butt;stroke-linejoin:miter;stroke:rgb(1.568628%,14.117648%,20%);stroke-opacity:1;stroke-miterlimit:8;" d="M 890.9375 358.958333 L 898.020833 359.791667 L 895.416667 360 C 892.604167 360 889.791667 359.791667 887.083333 359.479167 L 886.979167 359.479167 Z M 890.9375 358.958333 " transform="matrix(0.0375,0,0,0.0375,0,0)"/>
<path style="fill-rule:evenodd;fill:rgb(100%,100%,100%);fill-opacity:1;stroke-width:2;stroke-linecap:butt;stroke-linejoin:miter;stroke:rgb(100%,100%,100%);stroke-opacity:1;stroke-miterlimit:8;" d="M 895 312.395833 L 925.625 279.791667 L 1047.5 279.166667 L 985.520833 417.291667 C 974.895833 410.9375 980.9375 370.3125 958.020833 347.291667 C 938.4375 315.9375 887.916667 317.604167 895 312.395833 Z M 895 312.395833 " transform="matrix(0.0375,0,0,0.0375,0,0)"/>
<path style="fill-rule:evenodd;fill:rgb(100%,100%,100%);fill-opacity:1;stroke-width:2;stroke-linecap:butt;stroke-linejoin:miter;stroke:rgb(100%,100%,100%);stroke-opacity:1;stroke-miterlimit:8;" d="M 809.0625 284.375 C 819.791667 332.291667 835.625 346.875 885.416667 362.083333 L 897.604167 418.645833 L 759.270833 402.5 Z M 809.0625 284.375 " transform="matrix(0.0375,0,0,0.0375,0,0)"/>
<path style="fill-rule:nonzero;fill:rgb(0%,0%,0%);fill-opacity:1;stroke-width:2;stroke-linecap:butt;stroke-linejoin:miter;stroke:rgb(0%,0%,0%);stroke-opacity:1;stroke-miterlimit:8;" d="M 750 321.979167 L 911.979167 321.979167 L 911.979167 360 L 750 360 Z M 750 321.979167 " transform="matrix(0.0375,0,0,0.0375,0,0)"/>
<path style="fill-rule:evenodd;fill:rgb(0%,0%,0%);fill-opacity:1;stroke-width:2;stroke-linecap:butt;stroke-linejoin:miter;stroke:rgb(0%,0%,0%);stroke-opacity:1;stroke-miterlimit:8;" d="M 810 274.479167 C 810 228.333333 848.229167 191.041667 895.520833 191.041667 C 942.708333 191.041667 981.041667 228.333333 981.041667 274.479167 C 981.041667 320.625 942.708333 358.020833 895.520833 358.020833 C 848.229167 358.020833 810 320.625 810 274.479167 Z M 851.145833 274.479167 C 851.145833 297.916667 871.041667 316.770833 895.520833 316.770833 C 920 316.770833 939.791667 297.916667 939.791667 274.479167 C 939.791667 251.145833 920 232.1875 895.520833 232.1875 C 871.041667 232.1875 851.145833 251.145833 851.145833 274.479167 Z M 851.145833 274.479167 " transform="matrix(0.0375,0,0,0.0375,0,0)"/>
<path style="fill:none;stroke-width:2;stroke-linecap:butt;stroke-linejoin:miter;stroke:rgb(100%,100%,100%);stroke-opacity:1;stroke-miterlimit:8;" d="M -0.0208333 -0.0433248 C 14.5625 -0.0433248 29.25 0.269175 29.25 0.581675 C 29.25 0.894175 50.708333 1.102509 72.270833 1.102509 C 93.729167 1.102509 115.291667 20.373342 115.291667 39.540009 " transform="matrix(0.0375,0,0,-0.0375,30.075,11.98275)"/>
<path style="fill:none;stroke-width:2;stroke-linecap:butt;stroke-linejoin:miter;stroke:rgb(100%,100%,100%);stroke-opacity:1;stroke-miterlimit:8;" d="M 0.0208333 0.0400085 C 14.604167 0.0400085 29.1875 0.248342 29.1875 0.560842 C 29.1875 0.873342 50.75 1.185842 72.208333 1.185842 C 93.770833 1.185842 115.333333 20.352509 115.333333 39.519175 " transform="matrix(0.0375,0,0,-0.0375,30.1125,11.90775)"/>
<path style="fill:none;stroke-width:2;stroke-linecap:butt;stroke-linejoin:miter;stroke:rgb(100%,100%,100%);stroke-opacity:1;stroke-miterlimit:8;" d="M -0.0416667 0.0400085 C 14.645833 0.0400085 29.229167 0.248342 29.229167 0.560842 C 29.229167 0.873342 50.6875 1.185842 72.25 1.185842 C 93.8125 1.185842 115.270833 20.352509 115.270833 39.519175 " transform="matrix(0.0375,0,0,-0.0375,29.9625,11.90775)"/>
<path style="fill:none;stroke-width:2;stroke-linecap:butt;stroke-linejoin:miter;stroke:rgb(100%,100%,100%);stroke-opacity:1;stroke-miterlimit:8;" d="M -0.0416667 0.00116984 C 68.1875 0.00116984 136.416667 45.105337 136.416667 90.209503 C 136.416667 135.31367 204.645833 180.417837 272.875 180.417837 " transform="matrix(0.0375,0,0,-0.0375,32.4,13.589888)"/>
<path style="fill:none;stroke-width:2;stroke-linecap:butt;stroke-linejoin:miter;stroke:rgb(100%,100%,100%);stroke-opacity:1;stroke-miterlimit:8;" d="M 0.0416667 0.0220032 C 68.166667 0.0220032 136.395833 45.12617 136.395833 90.230337 C 136.395833 135.334503 204.625 180.43867 272.854167 180.43867 " transform="matrix(0.0375,0,0,-0.0375,32.2875,13.664888)"/>
<path style="fill:none;stroke-width:2;stroke-linecap:butt;stroke-linejoin:miter;stroke:rgb(100%,100%,100%);stroke-opacity:1;stroke-miterlimit:8;" d="M 0.0416667 -0.0404968 C 68.166667 -0.0404968 136.395833 45.06367 136.395833 90.167837 C 136.395833 135.272003 204.625 180.37617 272.854167 180.37617 " transform="matrix(0.0375,0,0,-0.0375,32.475,13.627388)"/>
<path style="fill:none;stroke-width:2;stroke-linecap:butt;stroke-linejoin:miter;stroke:rgb(100%,100%,100%);stroke-opacity:1;stroke-miterlimit:8;" d="M -0.0416667 0.0428365 C 68.1875 0.0428365 136.416667 45.147003 136.416667 90.147003 C 136.416667 135.25117 204.645833 180.355337 272.875 180.355337 " transform="matrix(0.0375,0,0,-0.0375,32.775,13.552388)"/>
<path style="fill-rule:evenodd;fill:rgb(100%,100%,100%);fill-opacity:1;stroke-width:2;stroke-linecap:butt;stroke-linejoin:miter;stroke:rgb(100%,100%,100%);stroke-opacity:1;stroke-miterlimit:8;" d="M 290 478.958333 L 339.583333 371.041667 L 398.020833 371.041667 L 398.958333 478.541667 Z M 290 478.958333 " transform="matrix(0.0375,0,0,0.0375,0,0)"/>
</g>
</svg>
